<svg xmlns="http://www.w3.org/2000/svg" width="24" height="24" stroke="#000" stroke-linecap="round" stroke-linejoin="round" fill="#fff" fill-rule="evenodd"><path d="M12 0C5.3726 0 0 5.3726 0 12c0 3.1826 1.2643 6.2348 3.5147 8.4853S8.8174 24 12 24s6.2348-1.2643 8.4853-3.5147S24 15.1826 24 12c0-6.6274-5.3726-12-12-12zM9.426 7.12c.6793.0041 1.3522.1329 1.985.38v1.181a4.5 4.5 0 0 0-2.25-.566 3.439 3.439 0 0 0-2.625 1.087 4.099 4.099 0 0 0-1.012 2.906 3.9 3.9 0 0 0 .945 2.754 3.217 3.217 0 0 0 2.482 1.023 4.656 4.656 0 0 0 2.464-.634l-.004 1.08a5.542 5.542 0 0 1-2.625.555 4.211 4.211 0 0 1-3.228-1.297 4.793 4.793 0 0 1-1.212-3.409 5.021 5.021 0 0 1 1.365-3.663c.9104-.9318 2.1711-1.4371 3.473-1.392l.12-.004h.122zm5.863.155h.836l-.555 2.652h1.661l.567-2.652h.81l-.555 2.652 1.732-.004-.15.697H17.91l-.412 1.98h1.852l-.176.698h-1.816l-.58 2.625h-.83l.567-2.625h-1.65l-.555 2.625h-.81l.555-2.625h-1.74l.131-.698h1.748l.401-1.976h-1.826l.138-.697h1.826zm.142 3.345L15 12.6h1.673l.423-1.98z" stroke="none" fill-rule="nonzero" fill="#6c429c"/></svg>