<svg xmlns="http://www.w3.org/2000/svg" width="414" height="471" stroke="#000" stroke-linecap="round" stroke-linejoin="round" fill="#fff" fill-rule="evenodd"><path d="M398.6037 0h-383.28C6.1427 0-.7453 7.769.0647 16.949l35.008 392.305c.811 9.173 8.745 18.774 17.644 21.253l138.006 38.335c8.887 2.463 23.413 2.479 32.313.032l138.177-38.281c8.901-2.472 16.835-11.986 17.645-21.175l35.023-392.469c.81-9.18-6.049-16.949-15.277-16.949zm-66.471 141.611c-.006.06-.053.107-.112.117s-.118-.021-.144-.077L223.7528 185.96a3.487 3.487 0 0 0-2.0981 3.897c.322 1.633 1.754 2.811 3.419 2.811h84.103c4.474 0 8.7361 1.9 11.728 5.227s4.429 7.768 3.954 12.216l-13.141 123.273c-.645 6.048-4.709 11.186-10.4469 13.205l-89.2691 31.41a15.761 15.761 0 0 1-10.397.025l-88.852-30.778c-5.773-2-9.871-7.153-10.52-13.228l-5.957-55.828a10.388 10.388 0 0 1 2.604-8.048c1.971-2.192 4.779-3.444 7.727-3.444h24.725c5.313 0 9.769 4.007 10.331 9.289l3.655 34.316 61.521 21.385 61.803-21.58 7.559-71.17h-174.743c-5.297 0-9.746-3.985-10.327-9.25l-3.327-30.164c-.508-4.601 2.088-8.982 6.366-10.745l111.837-46.109c1.269-.523 1.99-1.868 1.724-3.214s-1.446-2.314-2.817-2.314H87.1647c-3.545 0-6.518-2.677-6.888-6.201l-3.406-32.421a6.927 6.927 0 0 1 1.741-5.357c1.313-1.458 3.184-2.291 5.146-2.291h246.379a6.928 6.928 0 0 1 5.1661 2.313c1.3139 1.472 1.938 3.434 1.7149 5.394l-4.885 43.032z" stroke="none" fill-rule="nonzero" fill="#2965f1"/></svg>