<svg xmlns="http://www.w3.org/2000/svg" width="264" height="300" stroke="#000" stroke-linecap="round" stroke-linejoin="round" fill="#fff" fill-rule="evenodd"><path d="M4.5747 0c-2.75 0-4.799 2.241-4.555 4.98l23.184 260.047c.244 2.739 2.611 5.582 5.262 6.318l98.381 27.316c2.65.736 6.986.736 9.637.002l98.68-27.361c2.65-.735 5.02-3.578 5.264-6.316L263.6497 4.98c.246-2.739-1.805-4.98-4.555-4.98H4.5747zm209.702 59.641l-.842 9.423-.611 6.823-.781 8.701-.391 3.723h-5.057-69.76-5.053-5.055-36.74c-2.75 0-4.799 2.241-4.555 4.98l2.143 23.955c.244 2.738 2.695 4.98 5.445 4.98h33.708 5.055 5.053 57.939 9.457c2.449 0 4.273 1.999 4.051 4.442l-.848 9.423-6.891 77.228-.691 7.776c-.137 1.537-2.416 3.396-5.066 4.131l-58.133 16.119-4.893 1.351c-.041.009-2.242-.586-4.893-1.321l-58.195-16.148c-2.65-.735-5.018-3.578-5.262-6.317l-3.746-42.045c-.244-2.739 1.807-4.98 4.557-4.98h5.311 10 7.92c2.75 0 5.199 2.241 5.445 4.98l1.469 16.459c.244 2.739 2.615 5.566 5.271 6.283l27.221 7.351 4.848 1.304c.012 0 2.193-.588 4.848-1.305l27.27-7.369c2.654-.717 5.027-3.545 5.273-6.283l2.957-32.976c.246-2.739-1.803-4.98-4.553-4.98h-30.666-5.053-5.055-63.989c-2.75 0-5.199-2.242-5.443-4.98l-7.256-81.306-.842-9.423c-.217-2.443 1.854-4.442 4.604-4.442h72.926 5.055 5.053 72.838c2.749 0 4.821 1.999 4.603 4.443z" stroke="none" fill="#e34c26" fill-rule="nonzero"/></svg>