<svg xmlns="http://www.w3.org/2000/svg" width="13" height="15" stroke="#000" stroke-linecap="round" stroke-linejoin="round" fill="#fff" fill-rule="evenodd"><path d="M13 3.7917L6.5 0 0 3.7917v6.5744l1.0063.587 2.0563-.832A1.5 1.5 0 0 0 4 8.7306V3.5789h1v5.1517a2.5 2.5 0 0 1-1.5623 2.3175l-1.3394.542L6.5 14.1577l6.5-3.7916V3.7917zM6 5.5789c0-1.1046.8954-2 2-2h1.1667c1.0125 0 1.8333.8208 1.8333 1.8333v.1667h-1v-.1667c0-.4602-.3731-.8333-.8333-.8333H8a1 1 0 0 0-1 1c0 .5522.4477 1 1 1h1c1.1046 0 2 .8954 2 2s-.8954 2-2 2H8c-1.1046 0-2-.8954-2-2h1c0 .5522.4477 1 1 1h1c.5523 0 1-.4478 1-1s-.4477-1.0001-1-1.0001H8c-1.1046 0-2-.8954-2-1.9999z" stroke="none" fill="#90c53f"/></svg>