<svg xmlns="http://www.w3.org/2000/svg" width="15" height="14" stroke="#000" stroke-linecap="round" stroke-linejoin="round" fill="#fff" fill-rule="evenodd"><path d="M5.3154 1.0727c-.3995-.1159-.6958-.0848-.9113.032s-.4035.3479-.5246.7458-.1637.9359-.1044 1.5819l.0366.3207c.5232-.133 1.0854-.238 1.6762-.3113.4095-.5738.8391-1.0912 1.2749-1.5399l-.0654-.0524c-.5088-.4026-.9797-.66-1.382-.7768zm2.1845.1409l-.1819-.1483C6.746.6127 6.1603.2766 5.594.1123S4.4407-.0524 3.9278.2254s-.8324.7669-1.005 1.3339-.2102 1.2382-.1435 1.9645l.0645.523-.4905.1923c-.6704.2873-1.2449.6423-1.6591 1.062S0 6.2367 0 6.82.278 7.9172.6942 8.339s.9887.7746 1.6591 1.0619l.4905.1923-.0645.5231c-.0667.7262-.0282 1.4004.1435 1.9645s.4921 1.056 1.0049 1.3338 1.0972.2782 1.6663.1131 1.152-.5004 1.7239-.953l.182-.1482.182.1482c.572.4526 1.1577.7887 1.724.953s1.1533.1648 1.6662-.1131.8324-.7669 1.005-1.3338.2102-1.2383.1435-1.9645l-.0645-.5231.4906-.1923c.6704-.2873 1.2449-.6423 1.6591-1.0619S15 7.4033 15 6.82s-.278-1.0972-.6942-1.5189-.9887-.7747-1.6591-1.062l-.4906-.1924.0645-.5229c.0667-.7263.0282-1.4005-.1435-1.9645S11.585.5032 11.0721.2254 9.975-.0528 9.4059.1123s-1.152.5004-1.724.953l-.182.1483zm0 1.3647l-.6722.755L7.5 3.32l.6722.0133-.6723-.755zm2.0121.8635c-.4095-.5738-.8391-1.0912-1.2749-1.5399l.0654-.0524c.5087-.4026.9797-.66 1.382-.7768s.6958-.0848.9113.032.4035.3479.5246.7458.1637.9359.1044 1.5819l-.0366.3207c-.5232-.133-1.0854-.238-1.6762-.3113zm-.5626.9447L7.5 4.32l-1.4495.0665-.7488 1.2428-.582 1.1907.582 1.1908.7488 1.2427L7.5 9.32l1.4494-.0665.7487-1.2427.5821-1.1908-.582-1.1907-.7488-1.2428zm1.8234 1.138l-.1953-.3715-.3319-.5848.7522.1685-.225.7878zm0 2.591l-.1954.3716-.3318.5847.7522-.1684-.225-.7879zm1.1805.4868c-.145-.5737-.3419-1.1726-.5884-1.7823.2465-.6097.4434-1.2086.5884-1.7823l.2995.1206c.5963.2555 1.0469.547 1.3412.8452S14 6.5749 14 6.82s-.1138.5205-.406.8165-.7449.5897-1.3412.8452l-.2995.1206zm-.7651 1.2846c-.5232.1329-1.0854.238-1.6762.3113-.4095.5738-.8391 1.0912-1.2749 1.5399l.0654.0524c.5087.4026.9797.6601 1.382.7768s.6958.0848.9113-.0319.4035-.348.5246-.7459.1637-.9358.1044-1.5818l-.0366-.3208zm-3.6883 1.1748l.6723-.755-.6722.0134c-.2264 0-.4506-.0046-.6723-.0134l.6722.755zM4.7543 9.0718l-.3319-.5847-.1954-.3716-.2249.7878.7522.1685zm-.9426.8151c.5232.1329 1.0854.2379 1.6762.3112.4095.5738.8391 1.0913 1.2749 1.54l-.0654.0524c-.5088.4026-.9797.6601-1.3821.7768s-.6957.0848-.9113-.0319-.4034-.348-.5246-.7459-.1636-.9358-.1043-1.5818l.0366-.3208zm-.7651-1.2846c.145-.5737.3418-1.1726.5883-1.7823-.2465-.6097-.4433-1.2086-.5883-1.7823l-.2994.1206c-.5963.2555-1.0469.547-1.3412.8452S1 6.5749 1 6.82s.1138.5205.406.8165.7449.5897 1.3412.8452l.2994.1206zm.9555-3.8656l.2249.7878.1954-.3715.3319-.5848-.7522.1685zM6 6.82c0-.8284.6716-1.5 1.5-1.5S9 5.9916 9 6.82s-.6716 1.5-1.5 1.5S6 7.6484 6 6.82zm1.5-.5a.5.5 0 1 0 0 1 .5.5 0 1 0 0-1z" stroke="none" fill="#61dbfb"/></svg>